<svg width="28" height="28" viewBox="0 0 28 28" fill="none" xmlns="http://www.w3.org/2000/svg">
<path d="M27.9856 14.2615C27.9856 13.1144 27.8904 12.2773 27.6842 11.4092H14.2793V16.5868H22.1477C21.9891 17.8735 21.1325 19.8113 19.2288 21.1134L19.2021 21.2868L23.4405 24.4953L23.7341 24.524C26.4309 22.0901 27.9856 18.5091 27.9856 14.2615Z" fill="#4285F4"/>
<path d="M14.278 27.9035C18.1328 27.9035 21.369 26.6632 23.7328 24.524L19.2275 21.1135C18.0218 21.9351 16.4037 22.5087 14.278 22.5087C10.5024 22.5087 7.29795 20.0749 6.15565 16.7109L5.98821 16.7248L1.58107 20.0578L1.52344 20.2144C3.87126 24.772 8.69387 27.9035 14.278 27.9035Z" fill="#34A853"/>
<path d="M6.15705 16.7113C5.85565 15.8432 5.68121 14.913 5.68121 13.9519C5.68121 12.9907 5.85565 12.0606 6.1412 11.1925L6.13321 11.0076L1.67084 7.62109L1.52484 7.68896C0.557193 9.58024 0.00195312 11.7041 0.00195312 13.9519C0.00195312 16.1997 0.557193 18.3234 1.52484 20.2147L6.15705 16.7113Z" fill="#FBBC05"/>
<path d="M14.278 5.3947C16.9589 5.3947 18.7674 6.52635 19.7986 7.47205L23.828 3.6275C21.3533 1.37969 18.1328 0 14.278 0C8.69387 0 3.87126 3.1314 1.52344 7.68899L6.13979 11.1925C7.29795 7.82857 10.5024 5.3947 14.278 5.3947Z" fill="#EB4335"/>
</svg>
