<svg width="19" height="19" viewBox="0 0 19 19" fill="none" xmlns="http://www.w3.org/2000/svg">
<path d="M9.47132 0.596338C9.37163 0.601083 9.27475 0.630875 9.18963 0.682964C9.1045 0.735052 9.03388 0.807756 8.98428 0.894358L7.76554 3.0292L5.63998 1.78842C5.54941 1.73532 5.44638 1.70719 5.3414 1.70688C5.23642 1.70658 5.13323 1.73411 5.04236 1.78668C4.95148 1.83925 4.87617 1.91497 4.82409 2.00613C4.77202 2.09729 4.74504 2.20062 4.74592 2.3056L4.75983 4.76049L2.30031 4.75121C2.19572 4.75116 2.09297 4.77874 2.00247 4.83115C1.91196 4.88356 1.8369 4.95894 1.78488 5.04968C1.73287 5.14041 1.70574 5.24327 1.70624 5.34786C1.70675 5.45245 1.73487 5.55504 1.78776 5.64527L3.0239 7.76619L0.893702 8.98494C0.803136 9.03697 0.727896 9.11197 0.675575 9.20236C0.623254 9.29276 0.595703 9.39536 0.595703 9.49981C0.595703 9.60425 0.623254 9.70685 0.675575 9.79725C0.727896 9.88765 0.803136 9.96264 0.893702 10.0147L3.0239 11.2334L1.78776 13.3543C1.73487 13.4446 1.70675 13.5472 1.70624 13.6518C1.70574 13.7563 1.73287 13.8592 1.78488 13.9499C1.8369 14.0407 1.91196 14.1161 2.00247 14.1685C2.09297 14.2209 2.19572 14.2485 2.30031 14.2484L4.75983 14.2403L4.74592 16.694C4.74504 16.799 4.77202 16.9023 4.82409 16.9935C4.87617 17.0846 4.95148 17.1604 5.04236 17.2129C5.13323 17.2655 5.23642 17.293 5.3414 17.2927C5.44638 17.2924 5.54941 17.2643 5.63998 17.2112L7.76554 15.9751L8.98428 18.1053C9.03631 18.1958 9.11131 18.2711 9.20171 18.3234C9.2921 18.3757 9.3947 18.4033 9.49915 18.4033C9.6036 18.4033 9.7062 18.3757 9.79659 18.3234C9.88699 18.2711 9.96199 18.1958 10.014 18.1053L11.2281 15.9716L13.3537 17.2112C13.4439 17.2641 13.5465 17.2922 13.6511 17.2927C13.7557 17.2932 13.8585 17.2661 13.9493 17.2141C14.04 17.1621 14.1154 17.087 14.1678 16.9965C14.2202 16.906 14.2478 16.8032 14.2477 16.6987L14.2396 14.2403L16.6934 14.2484C16.7977 14.2488 16.9002 14.2217 16.9907 14.1699C17.0812 14.118 17.1565 14.0433 17.2089 13.9531C17.2613 13.8629 17.2891 13.7606 17.2894 13.6563C17.2897 13.552 17.2625 13.4494 17.2105 13.359L15.9744 11.2334L18.1046 10.0147C18.1952 9.96264 18.2704 9.88765 18.3227 9.79725C18.375 9.70685 18.4026 9.60425 18.4026 9.49981C18.4026 9.39536 18.375 9.29276 18.3227 9.20236C18.2704 9.11197 18.1952 9.03697 18.1046 8.98494L15.9744 7.76619L17.2105 5.64063C17.2625 5.55018 17.2897 5.44765 17.2894 5.34335C17.2891 5.23905 17.2613 5.13667 17.2089 5.04651C17.1565 4.95634 17.0812 4.88158 16.9907 4.82974C16.9002 4.7779 16.7977 4.75082 16.6934 4.75121L14.2396 4.76049L14.2477 2.3056C14.2486 2.20062 14.2216 2.09729 14.1696 2.00613C14.1175 1.91497 14.0422 1.83925 13.9513 1.78668C13.8604 1.73411 13.7572 1.70658 13.6523 1.70688C13.5473 1.70719 13.4443 1.73532 13.3537 1.78842L11.2328 3.02456L10.014 0.894358C9.95972 0.79957 9.88033 0.721596 9.78458 0.669016C9.68884 0.616436 9.58044 0.591288 9.47132 0.596338ZM7.71799 5.34261C8.69467 5.34261 9.49683 6.15058 9.49683 7.12725C9.49683 8.10392 8.69467 8.90609 7.71799 8.90609C6.74132 8.90609 5.93799 8.10392 5.93799 7.12725C5.93799 6.15058 6.74132 5.34261 7.71799 5.34261ZM12.455 5.93053C12.5751 5.92601 12.6938 5.95806 12.7953 6.02244C12.8969 6.08683 12.9765 6.18052 13.0236 6.29112C13.0707 6.40171 13.0832 6.52401 13.0593 6.64184C13.0354 6.75967 12.9763 6.86747 12.8898 6.95099L6.95033 12.8905C6.8955 12.9477 6.8298 12.9933 6.75709 13.0248C6.68437 13.0562 6.60611 13.0728 6.5269 13.0736C6.44768 13.0744 6.3691 13.0594 6.29577 13.0294C6.22243 12.9995 6.15583 12.9552 6.09985 12.8991C6.04387 12.843 5.99965 12.7764 5.96978 12.703C5.9399 12.6296 5.92499 12.551 5.9259 12.4718C5.92681 12.3926 5.94353 12.3144 5.97507 12.2417C6.00662 12.169 6.05236 12.1034 6.10962 12.0486L12.048 6.11027C12.1552 5.99987 12.3011 5.93543 12.455 5.93053ZM11.2815 10.0935C12.2581 10.0935 13.0603 10.8968 13.0603 11.8735C13.0603 12.8502 12.2581 13.657 11.2815 13.657C10.3048 13.657 9.49683 12.8502 9.49683 11.8735C9.49683 10.8968 10.3048 10.0935 11.2815 10.0935Z" fill="white"/>
</svg>
